<?xml version="1.0" standalone="no"?>
<!DOCTYPE svg PUBLIC "-//W3C//DTD SVG 20010904//EN" "http://www.w3.org/TR/2001/REC-SVG-20010904/DTD/svg10.dtd">
<svg version="1.0" xmlns="http://www.w3.org/2000/svg"
  width="880px" height="880px" viewBox="0 0 2000 2000"
  preserveAspectRatio="xMidYMid meet">
  <g transform="translate(0.000000,2000.000000) scale(0.100000,-0.100000)"
    fill="#ffba00" stroke="none">
    <path
      d="M11452 16925 c-114 -25 -207 -78 -303 -174 -100 -100 -138 -170 -164
-300 -20 -97 -15 -177 12 -221 135 -213 247 -327 385 -394 190 -92 366 -133
528 -122 98 6 242 40 333 78 131 55 260 165 305 259 105 219 -22 493 -323 696
-222 149 -553 226 -773 178z m243 -200 c202 -21 464 -150 594 -291 128 -140
144 -256 52 -372 -34 -42 -113 -99 -165 -118 -17 -6 -18 -3 -11 34 25 153 -21
317 -124 433 -125 143 -394 235 -663 227 -123 -3 -127 -2 -105 15 93 73 218
94 422 72z m-119 -160 c177 -31 308 -91 399 -182 112 -112 155 -305 95 -423
-29 -57 -67 -73 -181 -78 -119 -5 -228 15 -354 65 -180 72 -272 151 -346 298
-40 78 -41 82 -37 166 5 106 20 133 86 153 63 20 228 20 338 1z" />
    <path
      d="M9106 16414 c-281 -48 -493 -115 -805 -251 -377 -164 -460 -209 -568
-307 -155 -140 -228 -360 -189 -567 9 -47 16 -93 16 -101 0 -9 -46 -45 -107
-84 -483 -307 -929 -751 -1238 -1230 -344 -533 -580 -1084 -689 -1609 -50
-241 -96 -624 -96 -800 0 -334 105 -795 260 -1145 189 -429 433 -683 859 -899
285 -144 481 -207 1236 -395 558 -140 622 -158 768 -216 159 -64 250 -122 353
-224 148 -148 220 -299 231 -483 6 -88 -11 -243 -26 -243 -4 0 -115 118 -246
262 -463 507 -529 565 -727 631 -90 30 -99 31 -263 31 -144 0 -182 -3 -249
-22 -332 -93 -747 -432 -1014 -830 -267 -396 -385 -794 -423 -1420 -17 -280
10 -597 70 -826 123 -470 411 -867 837 -1152 192 -128 509 -274 815 -375 401
-133 743 -203 1460 -299 l85 -12 11 -106 c12 -118 59 -258 106 -317 31 -38
191 -123 289 -154 104 -31 262 -45 513 -45 256 0 369 12 655 70 414 83 640
160 830 286 92 61 207 173 237 232 34 67 38 124 19 317 -20 206 -20 421 -2
510 18 82 53 154 98 196 18 17 132 89 253 159 380 219 550 333 762 509 136
113 343 319 452 450 100 121 241 330 303 451 130 253 227 583 274 929 24 177
24 585 1 774 -54 431 -188 763 -436 1081 -130 167 -408 426 -599 558 -94 65
-297 182 -383 221 -152 69 -562 197 -854 266 -391 93 -477 103 -970 115 -671
17 -913 51 -1260 178 -141 51 -399 183 -540 276 -323 213 -567 581 -615 926
-29 206 43 693 125 849 82 156 169 188 270 99 83 -73 110 -148 220 -608 122
-509 150 -601 232 -765 63 -125 153 -246 273 -365 144 -144 263 -229 460 -328
172 -86 301 -133 436 -157 226 -41 789 2 1062 81 200 58 452 168 593 259 143
92 479 413 595 569 76 101 199 330 247 461 43 114 104 343 123 461 22 133 25
479 5 624 -47 346 -134 595 -308 882 -166 273 -353 509 -603 759 -314 314
-596 520 -970 707 -360 180 -711 295 -1160 377 -107 20 -208 41 -223 47 -34
13 -42 27 -62 114 -44 195 -140 413 -221 503 -126 140 -277 169 -588 115z
m331 -189 c24 -9 56 -33 73 -51 60 -69 127 -228 175 -420 39 -154 50 -178 105
-228 62 -56 106 -71 382 -126 397 -80 552 -122 793 -217 614 -242 1147 -656
1574 -1223 309 -410 452 -762 476 -1169 3 -47 8 -109 10 -136 6 -71 -11 -296
-30 -391 -38 -185 -120 -420 -195 -559 -92 -169 -193 -297 -369 -468 -143
-138 -207 -189 -303 -241 -193 -104 -549 -157 -818 -122 -252 34 -441 95 -578
189 -137 94 -307 298 -397 477 -18 36 -76 165 -128 286 -266 616 -313 713
-397 825 -72 97 -205 217 -294 268 -152 86 -347 133 -467 111 -92 -17 -307
-96 -366 -135 -130 -86 -224 -274 -273 -548 -51 -278 -64 -558 -35 -711 29
-152 113 -360 207 -514 161 -265 429 -502 746 -661 411 -207 773 -303 1252
-331 542 -32 709 -40 723 -34 28 11 592 -94 837 -156 309 -78 753 -253 909
-359 348 -237 666 -581 804 -871 81 -172 142 -393 172 -634 16 -125 22 -470
10 -582 -26 -254 -47 -378 -90 -534 -116 -417 -303 -729 -640 -1065 -256 -257
-483 -425 -885 -655 -283 -162 -334 -197 -407 -272 -67 -70 -112 -150 -140
-249 -16 -56 -18 -103 -17 -360 l0 -297 -35 -5 c-20 -3 -178 -35 -351 -71
-379 -78 -624 -119 -865 -145 -316 -35 -319 -35 -333 -18 -14 16 -22 63 -47
267 -30 245 -39 291 -60 306 -13 9 -47 14 -104 14 -321 0 -901 59 -1206 122
-275 56 -607 193 -993 409 -305 171 -563 360 -720 527 -206 220 -352 470 -452
771 -111 331 -141 495 -147 789 -5 223 -5 223 22 300 65 184 198 427 325 597
178 237 448 469 664 571 199 94 429 99 600 13 104 -53 161 -105 459 -424 393
-420 543 -567 641 -626 133 -82 173 -94 311 -94 114 0 123 2 187 32 177 84
269 280 269 574 1 195 -49 396 -142 582 -75 149 -141 241 -258 358 -166 165
-335 267 -651 392 -304 120 -677 240 -1130 362 -371 100 -618 200 -877 353
-548 324 -856 834 -1007 1662 -69 382 -71 606 -10 1110 18 153 30 187 169 475
221 461 478 830 804 1156 441 441 741 653 1214 859 65 28 102 50 109 64 14 32
-37 182 -121 353 l-70 143 42 24 c53 31 494 228 607 271 108 41 264 82 382
100 121 18 298 13 355 -10z m-1402 -641 c42 -96 75 -176 73 -178 -1 -1 -79
-38 -173 -83 l-170 -81 -12 37 c-6 20 -12 70 -12 112 -1 91 23 170 76 247 36
53 109 121 129 122 6 0 46 -79 89 -176z m-1539 -9038 c100 -502 300 -902 604
-1206 239 -241 521 -427 1020 -674 409 -203 669 -276 1205 -335 163 -19 285
-28 590 -47 l100 -6 -55 -47 c-30 -25 -93 -82 -140 -127 -81 -77 -86 -80 -102
-63 -24 25 -74 36 -228 48 -299 24 -810 108 -1103 182 -692 174 -1116 374
-1425 673 -210 202 -364 447 -451 713 -80 244 -109 600 -80 963 13 160 19 184
31 110 4 -30 20 -113 34 -184z" />
    <path
      d="M12310 15681 c-49 -16 -85 -40 -127 -83 -86 -88 -113 -217 -74 -349
28 -94 75 -162 154 -226 120 -97 232 -138 361 -131 131 7 210 60 263 176 63
136 2 335 -144 473 -70 66 -112 93 -189 120 -64 22 -204 34 -244 20z m229
-197 c106 -57 215 -215 214 -308 -1 -51 -19 -85 -65 -119 -53 -39 -185 -13
-293 58 -104 69 -151 157 -143 267 4 56 8 64 47 101 l43 40 72 -5 c55 -4 85
-12 125 -34z" />
    <path
      d="M4410 11551 c-103 -33 -170 -125 -170 -232 0 -40 66 -223 116 -321
31 -62 116 -153 164 -178 224 -113 402 59 334 324 -29 113 -81 203 -169 292
-44 44 -98 89 -120 99 -45 21 -118 28 -155 16z m130 -206 c81 -60 138 -159
159 -279 17 -96 -20 -146 -83 -112 -95 51 -191 198 -203 309 -12 118 36 149
127 82z" />
    <path
      d="M4277 10634 c-74 -23 -130 -84 -156 -168 -25 -81 -26 -132 -6 -285
18 -135 36 -207 75 -307 175 -439 507 -851 929 -1153 160 -115 424 -277 576
-354 183 -93 409 -157 555 -157 135 0 243 42 314 121 93 103 101 235 25 388
-36 73 -59 102 -158 201 -142 143 -201 188 -611 475 -179 125 -368 260 -420
301 -261 200 -460 411 -637 674 -135 201 -338 312 -486 264z m112 -205 l32
-11 -6 -72 c-11 -127 52 -307 167 -474 69 -100 254 -284 398 -395 201 -156
828 -569 1082 -713 154 -88 292 -180 314 -212 6 -9 15 -31 18 -49 7 -28 4 -33
-22 -47 -112 -58 -328 -13 -617 129 -370 181 -682 402 -931 656 -275 283 -436
549 -530 877 -45 159 -46 166 -34 219 13 60 46 103 78 103 10 0 33 -5 51 -11z
m158 -121 c27 -35 88 -115 134 -178 166 -228 221 -292 353 -408 217 -190 411
-336 776 -585 234 -160 335 -237 453 -347 137 -128 145 -132 -443 223 -324
196 -631 393 -757 488 -172 130 -325 279 -427 419 -55 74 -129 223 -145 292
-13 55 -15 158 -3 158 5 0 31 -28 59 -62z" />
    <path
      d="M14746 6745 c-105 -37 -212 -144 -302 -301 -27 -47 -78 -127 -113
-177 -175 -251 -490 -731 -527 -804 -126 -248 -60 -462 155 -503 62 -12 164 9
248 50 132 65 329 243 455 411 120 160 267 431 327 603 44 125 83 324 83 426
2 223 -148 359 -326 295z m118 -197 c21 -30 21 -149 0 -259 -44 -232 -180
-522 -355 -754 -65 -87 -198 -226 -167 -175 239 395 304 535 327 705 15 105 2
152 -54 204 l-44 40 87 110 c112 141 172 179 206 129z m-292 -315 c36 -42 40
-61 28 -150 -30 -226 -189 -537 -413 -807 l-87 -106 -54 0 c-88 0 -101 28 -71
145 19 73 79 179 287 513 212 340 267 422 282 422 7 0 20 -8 28 -17z" />
  </g>
</svg>